<?xml version="1.0" encoding="utf-8"?>
<!-- Generator: Adobe Illustrator 23.0.0, SVG Export Plug-In . SVG Version: 6.00 Build 0)  -->
<svg version="1.1" id="Layer_1" xmlns="http://www.w3.org/2000/svg" xmlns:xlink="http://www.w3.org/1999/xlink" x="0px" y="0px"
	 viewBox="0 0 595.3 425.2" style="enable-background:new 0 0 595.3 425.2;" xml:space="preserve">
<style type="text/css">
	.st0{fill:#E30613;}
	.st1{fill:#164194;}
	.st2{fill:#222D61;}
</style>
<g>
	<g>
		<path class="st0" d="M305.9,149.8c53.2-52.5,109.4-96.2,162.2-48.1c0,0-44.5-33.5-101,22c-12.7,12.5-26.8,27.7-42.1,43.3
			L305.9,149.8z"/>
		<path class="st1" d="M308,183.8C257.8,232,196.5,275.5,129.9,242c0,0,74.3,10.5,138.2-53.9c7.6-7.6,15.3-15.5,23-23.4L308,183.8z"
			/>
		<path class="st0" d="M308,183.8C257.8,232,196.5,275.5,129.9,242c0,0,74.3,10.5,138.2-53.9c7.6-7.6,15.3-15.5,23-23.4L308,183.8z"
			/>
		<path class="st2" d="M250.8,195.1c-2.4,2-4.9,4-7.3,5.8l-18.7-44.8c-6.2-0.1-11.2-5.2-11.2-11.4c0-6.3,5.1-11.4,11.4-11.4
			c6.3,0,11.4,5.1,11.4,11.4c0,3.2-1.3,6-3.3,8.1L250.8,195.1z M172.8,120.2c0-6.3-5.1-11.4-11.4-11.4c-6.3,0-11.4,5.1-11.4,11.4
			s5.1,11.4,11.4,11.4c0,0,0.1,0,0.1,0l39,93.3c2.7-1.1,5.5-2.2,8.3-3.5l-39-93.5C171.6,125.9,172.8,123.2,172.8,120.2z
			 M205.2,133.1c0-6.3-5.1-11.4-11.4-11.4c-6.3,0-11.4,5.1-11.4,11.4c0,6.2,4.9,11.2,11,11.4l29.3,70c2.6-1.4,5.2-3,7.8-4.6
			l-28.7-68.6C203.9,139.2,205.2,136.3,205.2,133.1z"/>
		<g>
			<path class="st0" d="M367.4,178.1l-14.5-32.3c-2.2,2.3-4.4,4.6-6.7,7l13,28.9c-2,2.1-3.2,5-3.1,8.2c0.2,6.3,5.4,11.3,11.7,11.1
				c6.3-0.2,11.3-5.4,11.1-11.7C378.7,183,373.6,178.1,367.4,178.1z"/>
			<path class="st0" d="M399.1,189l-27.8-61.8c-0.5,0.5-1,1-1.5,1.5c-1.7,1.7-3.5,3.5-5.3,5.3l26.3,58.6c-2.1,2.1-3.3,5.1-3.2,8.3
				c0.2,6.3,5.4,11.3,11.7,11.1c6.3-0.2,11.3-5.4,11.1-11.7C410.3,193.9,405.2,189,399.1,189z"/>
			<path class="st0" d="M431.5,201c0,0-0.1,0-0.1,0L391,111.3c-2.5,1.6-5,3.4-7.5,5.3l39.6,88.2c-1.9,2.1-3,4.9-2.9,7.9
				c0.2,6.3,5.4,11.3,11.7,11.1c6.3-0.2,11.3-5.4,11.1-11.7C443,205.8,437.8,200.8,431.5,201z"/>
		</g>
		<path class="st2" d="M388.5,42.7c0,0-86.5,21.3-105.9,83.3c0,0,39.8-55.2,105.9-67.5C388.5,58.6,389,42.3,388.5,42.7z"/>
		<g>
			<path class="st0" d="M303.7,107.3c10.9,10.6,16.7,18.7,16.7,18.7c-2.7-8.6-6.7-16.4-11.5-23.4C307,104.2,305.3,105.8,303.7,107.3
				z"/>
			<path class="st0" d="M299.5,90.9c-32.4-35.2-85.1-48.2-85.1-48.2c-0.5-0.5,0,15.8,0,15.8c34,6.3,61,23.9,79.2,39.6
				C295.5,95.7,297.4,93.3,299.5,90.9z"/>
		</g>
		<path class="st2" d="M127.3,101.7c0,0,44.5-33.5,101,22c56.5,55.5,141.3,166.5,237.1,118.3c0,0-74.3,10.5-138.2-53.9
			S192.7,42,127.3,101.7z"/>
	</g>
	<g>
		<g>
			<path class="st2" d="M127.3,380.6v-10h3l1.8,6.8l1.8-6.8h3v10h-1.9v-7.9l-2,7.9h-1.9l-2-7.9v7.9H127.3z"/>
			<path class="st2" d="M140.3,372.4v-1.8h1.9v1.8H140.3z M140.3,380.6v-7.2h1.9v7.2H140.3z"/>
			<path class="st2" d="M152.2,380.6h-1.8v-1.1c-0.3,0.4-0.6,0.7-1,0.9c-0.4,0.2-0.8,0.3-1.2,0.3c-0.8,0-1.5-0.3-2.1-1
				c-0.6-0.7-0.9-1.6-0.9-2.8c0-1.2,0.3-2.2,0.9-2.8c0.6-0.6,1.3-1,2.2-1c0.8,0,1.5,0.3,2.1,1v-3.6h1.9V380.6z M147.1,376.8
				c0,0.8,0.1,1.3,0.3,1.7c0.3,0.5,0.7,0.7,1.3,0.7c0.4,0,0.8-0.2,1.1-0.6c0.3-0.4,0.5-0.9,0.5-1.7c0-0.8-0.1-1.4-0.4-1.8
				c-0.3-0.4-0.7-0.5-1.2-0.5c-0.5,0-0.8,0.2-1.1,0.5C147.3,375.5,147.1,376.1,147.1,376.8z"/>
			<path class="st2" d="M162.1,380.6h-1.8v-1.1c-0.3,0.4-0.6,0.7-1,0.9c-0.4,0.2-0.8,0.3-1.2,0.3c-0.8,0-1.5-0.3-2.1-1
				c-0.6-0.7-0.9-1.6-0.9-2.8c0-1.2,0.3-2.2,0.9-2.8c0.6-0.6,1.3-1,2.2-1c0.8,0,1.5,0.3,2.1,1v-3.6h1.9V380.6z M157,376.8
				c0,0.8,0.1,1.3,0.3,1.7c0.3,0.5,0.7,0.7,1.3,0.7c0.4,0,0.8-0.2,1.1-0.6c0.3-0.4,0.5-0.9,0.5-1.7c0-0.8-0.1-1.4-0.4-1.8
				c-0.3-0.4-0.7-0.5-1.2-0.5c-0.5,0-0.8,0.2-1.1,0.5C157.2,375.5,157,376.1,157,376.8z"/>
			<path class="st2" d="M165.4,380.6v-10h1.9v10H165.4z"/>
			<path class="st2" d="M174.8,378.3l1.9,0.3c-0.2,0.7-0.6,1.2-1.2,1.6c-0.5,0.4-1.2,0.5-2,0.5c-1.3,0-2.2-0.4-2.8-1.2
				c-0.5-0.7-0.7-1.5-0.7-2.5c0-1.2,0.3-2.1,0.9-2.8c0.6-0.7,1.4-1,2.4-1c1.1,0,1.9,0.4,2.5,1.1c0.6,0.7,0.9,1.8,0.9,3.3h-4.8
				c0,0.6,0.2,1,0.5,1.3c0.3,0.3,0.7,0.5,1.1,0.5c0.3,0,0.6-0.1,0.8-0.2C174.6,378.9,174.7,378.6,174.8,378.3z M175,376.3
				c0-0.6-0.2-1-0.4-1.3c-0.3-0.3-0.6-0.4-1-0.4c-0.4,0-0.8,0.2-1,0.5c-0.3,0.3-0.4,0.7-0.4,1.2H175z"/>
			<path class="st2" d="M185.1,380.6v-10h7.4v1.7h-5.4v2.2h5v1.7h-5v2.7h5.6v1.7H185.1z"/>
			<path class="st2" d="M197.2,375.5l-1.7-0.3c0.2-0.7,0.5-1.2,1-1.6c0.5-0.3,1.2-0.5,2.1-0.5c0.9,0,1.5,0.1,1.9,0.3
				c0.4,0.2,0.7,0.5,0.9,0.8c0.2,0.3,0.3,0.9,0.3,1.7l0,2.2c0,0.6,0,1.1,0.1,1.4c0.1,0.3,0.2,0.6,0.3,1h-1.9c0-0.1-0.1-0.3-0.2-0.6
				c0-0.1-0.1-0.2-0.1-0.2c-0.3,0.3-0.7,0.6-1,0.7c-0.4,0.2-0.8,0.2-1.2,0.2c-0.7,0-1.3-0.2-1.8-0.6c-0.4-0.4-0.6-0.9-0.6-1.5
				c0-0.4,0.1-0.8,0.3-1.1c0.2-0.3,0.5-0.6,0.8-0.7c0.4-0.2,0.9-0.3,1.5-0.4c0.9-0.2,1.5-0.3,1.9-0.5v-0.2c0-0.4-0.1-0.6-0.3-0.8
				c-0.2-0.2-0.5-0.2-1-0.2c-0.3,0-0.6,0.1-0.8,0.2C197.5,375,197.3,375.2,197.2,375.5z M199.8,377.1c-0.2,0.1-0.6,0.2-1.2,0.3
				c-0.5,0.1-0.9,0.2-1,0.3c-0.3,0.2-0.4,0.4-0.4,0.7c0,0.3,0.1,0.5,0.3,0.7c0.2,0.2,0.5,0.3,0.8,0.3c0.3,0,0.7-0.1,1-0.3
				c0.2-0.2,0.4-0.4,0.5-0.6c0-0.2,0.1-0.5,0.1-0.9V377.1z"/>
			<path class="st2" d="M204.2,378.5l1.9-0.3c0.1,0.4,0.2,0.7,0.5,0.8c0.2,0.2,0.6,0.3,1,0.3c0.5,0,0.9-0.1,1.1-0.3
				c0.2-0.1,0.3-0.3,0.3-0.5c0-0.1,0-0.3-0.1-0.4c-0.1-0.1-0.3-0.2-0.6-0.3c-1.5-0.3-2.5-0.7-2.9-0.9c-0.6-0.4-0.9-0.9-0.9-1.6
				c0-0.6,0.2-1.2,0.7-1.6c0.5-0.4,1.3-0.6,2.3-0.6c1,0,1.7,0.2,2.2,0.5c0.5,0.3,0.8,0.8,1,1.4l-1.8,0.3c-0.1-0.3-0.2-0.5-0.4-0.6
				c-0.2-0.1-0.5-0.2-0.9-0.2c-0.5,0-0.9,0.1-1.1,0.2c-0.1,0.1-0.2,0.2-0.2,0.4c0,0.1,0.1,0.3,0.2,0.3c0.2,0.1,0.8,0.3,1.8,0.5
				c1,0.2,1.7,0.5,2.1,0.9c0.4,0.3,0.6,0.8,0.6,1.4c0,0.7-0.3,1.2-0.8,1.7c-0.6,0.5-1.4,0.7-2.5,0.7c-1,0-1.8-0.2-2.3-0.6
				C204.8,379.7,204.4,379.2,204.2,378.5z"/>
			<path class="st2" d="M217.4,373.3v1.5h-1.3v2.9c0,0.6,0,0.9,0,1c0,0.1,0.1,0.2,0.2,0.2c0.1,0.1,0.2,0.1,0.3,0.1
				c0.2,0,0.4-0.1,0.8-0.2l0.2,1.5c-0.4,0.2-0.9,0.3-1.5,0.3c-0.3,0-0.7-0.1-0.9-0.2c-0.3-0.1-0.5-0.3-0.6-0.4
				c-0.1-0.2-0.2-0.4-0.3-0.7c0-0.2-0.1-0.7-0.1-1.3v-3.2h-0.9v-1.5h0.9v-1.4l1.9-1.1v2.6H217.4z"/>
			<path class="st2" d="M230,376.9v-1.7h4.3v4c-0.4,0.4-1,0.8-1.8,1.1c-0.8,0.3-1.6,0.5-2.4,0.5c-1,0-2-0.2-2.7-0.7
				c-0.8-0.4-1.4-1.1-1.7-1.9c-0.4-0.8-0.6-1.7-0.6-2.7c0-1,0.2-2,0.7-2.8c0.4-0.8,1.1-1.4,1.9-1.9c0.6-0.3,1.4-0.5,2.4-0.5
				c1.2,0,2.2,0.3,2.9,0.8c0.7,0.5,1.1,1.2,1.3,2.2l-2,0.4c-0.1-0.5-0.4-0.9-0.8-1.2c-0.4-0.3-0.9-0.4-1.5-0.4
				c-0.9,0-1.6,0.3-2.1,0.8c-0.5,0.6-0.8,1.4-0.8,2.5c0,1.2,0.3,2.1,0.8,2.7c0.5,0.6,1.2,0.9,2.1,0.9c0.4,0,0.8-0.1,1.3-0.2
				c0.4-0.2,0.8-0.4,1.1-0.6v-1.3H230z"/>
			<path class="st2" d="M241.8,378.3l1.9,0.3c-0.2,0.7-0.6,1.2-1.2,1.6c-0.5,0.4-1.2,0.5-2,0.5c-1.3,0-2.2-0.4-2.8-1.2
				c-0.5-0.7-0.7-1.5-0.7-2.5c0-1.2,0.3-2.1,0.9-2.8c0.6-0.7,1.4-1,2.4-1c1.1,0,1.9,0.4,2.5,1.1c0.6,0.7,0.9,1.8,0.9,3.3H239
				c0,0.6,0.2,1,0.5,1.3c0.3,0.3,0.7,0.5,1.1,0.5c0.3,0,0.6-0.1,0.8-0.2C241.5,378.9,241.7,378.6,241.8,378.3z M241.9,376.3
				c0-0.6-0.2-1-0.4-1.3c-0.3-0.3-0.6-0.4-1-0.4c-0.4,0-0.8,0.2-1,0.5c-0.3,0.3-0.4,0.7-0.4,1.2H241.9z"/>
			<path class="st2" d="M253.3,380.6h-1.9v-3.7c0-0.8,0-1.3-0.1-1.5c-0.1-0.2-0.2-0.4-0.4-0.5c-0.2-0.1-0.4-0.2-0.7-0.2
				c-0.3,0-0.6,0.1-0.9,0.3c-0.3,0.2-0.4,0.4-0.5,0.7c-0.1,0.3-0.1,0.9-0.1,1.7v3.3h-1.9v-7.2h1.8v1.1c0.6-0.8,1.4-1.2,2.4-1.2
				c0.4,0,0.8,0.1,1.2,0.2c0.3,0.2,0.6,0.3,0.8,0.6c0.2,0.2,0.3,0.5,0.4,0.8c0.1,0.3,0.1,0.7,0.1,1.3V380.6z"/>
			<path class="st2" d="M260.8,378.3l1.9,0.3c-0.2,0.7-0.6,1.2-1.2,1.6c-0.5,0.4-1.2,0.5-2,0.5c-1.3,0-2.2-0.4-2.8-1.2
				c-0.5-0.7-0.7-1.5-0.7-2.5c0-1.2,0.3-2.1,0.9-2.8c0.6-0.7,1.4-1,2.4-1c1.1,0,1.9,0.4,2.5,1.1c0.6,0.7,0.9,1.8,0.9,3.3h-4.8
				c0,0.6,0.2,1,0.5,1.3c0.3,0.3,0.7,0.5,1.1,0.5c0.3,0,0.6-0.1,0.8-0.2C260.6,378.9,260.7,378.6,260.8,378.3z M260.9,376.3
				c0-0.6-0.2-1-0.4-1.3c-0.3-0.3-0.6-0.4-1-0.4c-0.4,0-0.8,0.2-1,0.5c-0.3,0.3-0.4,0.7-0.4,1.2H260.9z"/>
			<path class="st2" d="M269.1,373.3v1.5h-1.3v2.9c0,0.6,0,0.9,0,1c0,0.1,0.1,0.2,0.2,0.2c0.1,0.1,0.2,0.1,0.3,0.1
				c0.2,0,0.4-0.1,0.8-0.2l0.2,1.5c-0.4,0.2-0.9,0.3-1.5,0.3c-0.3,0-0.7-0.1-0.9-0.2c-0.3-0.1-0.5-0.3-0.6-0.4
				c-0.1-0.2-0.2-0.4-0.3-0.7c0-0.2-0.1-0.7-0.1-1.3v-3.2H265v-1.5h0.9v-1.4l1.9-1.1v2.6H269.1z"/>
			<path class="st2" d="M271.8,372.4v-1.8h1.9v1.8H271.8z M271.8,380.6v-7.2h1.9v7.2H271.8z"/>
			<path class="st2" d="M283.4,375.5l-1.9,0.3c-0.1-0.4-0.2-0.7-0.4-0.9c-0.2-0.2-0.5-0.3-0.9-0.3c-0.5,0-0.9,0.2-1.1,0.5
				c-0.3,0.3-0.4,0.9-0.4,1.7c0,0.9,0.1,1.5,0.4,1.8c0.3,0.4,0.7,0.5,1.2,0.5c0.4,0,0.7-0.1,0.9-0.3c0.2-0.2,0.4-0.6,0.5-1.1
				l1.9,0.3c-0.2,0.9-0.6,1.5-1.1,2c-0.6,0.4-1.3,0.7-2.2,0.7c-1.1,0-1.9-0.3-2.5-1c-0.6-0.7-0.9-1.6-0.9-2.8c0-1.2,0.3-2.1,0.9-2.8
				c0.6-0.7,1.5-1,2.6-1c0.9,0,1.6,0.2,2.1,0.6C282.8,374.1,283.2,374.7,283.4,375.5z"/>
			<path class="st2" d="M285.6,378.5l1.9-0.3c0.1,0.4,0.2,0.7,0.5,0.8c0.2,0.2,0.6,0.3,1,0.3c0.5,0,0.9-0.1,1.1-0.3
				c0.2-0.1,0.3-0.3,0.3-0.5c0-0.1,0-0.3-0.1-0.4c-0.1-0.1-0.3-0.2-0.6-0.3c-1.5-0.3-2.5-0.7-2.9-0.9c-0.6-0.4-0.9-0.9-0.9-1.6
				c0-0.6,0.2-1.2,0.7-1.6c0.5-0.4,1.3-0.6,2.3-0.6c1,0,1.7,0.2,2.2,0.5c0.5,0.3,0.8,0.8,1,1.4l-1.8,0.3c-0.1-0.3-0.2-0.5-0.4-0.6
				c-0.2-0.1-0.5-0.2-0.9-0.2c-0.5,0-0.9,0.1-1.1,0.2c-0.1,0.1-0.2,0.2-0.2,0.4c0,0.1,0.1,0.3,0.2,0.3c0.2,0.1,0.8,0.3,1.8,0.5
				c1,0.2,1.7,0.5,2.1,0.9c0.4,0.3,0.6,0.8,0.6,1.4c0,0.7-0.3,1.2-0.8,1.7c-0.6,0.5-1.4,0.7-2.5,0.7c-1,0-1.8-0.2-2.3-0.6
				C286.1,379.7,285.7,379.2,285.6,378.5z"/>
			<path class="st2" d="M309.5,379.3l-1.2,1.5c-0.6-0.3-1.1-0.7-1.6-1.1c-0.4,0.4-0.8,0.6-1.3,0.8c-0.5,0.2-1,0.3-1.6,0.3
				c-1.2,0-2.2-0.3-2.8-1c-0.5-0.5-0.7-1.2-0.7-1.9c0-0.6,0.2-1.2,0.6-1.7c0.4-0.5,1-1,1.7-1.3c-0.3-0.4-0.6-0.8-0.8-1.2
				c-0.2-0.4-0.3-0.7-0.3-1c0-0.6,0.2-1.1,0.7-1.5c0.5-0.4,1.2-0.6,2.1-0.6c0.9,0,1.5,0.2,2,0.7c0.5,0.4,0.7,1,0.7,1.6
				c0,0.4-0.1,0.8-0.4,1.2c-0.2,0.4-0.7,0.8-1.5,1.2l1.4,1.8c0.2-0.3,0.3-0.7,0.4-1.1l1.7,0.4c-0.2,0.6-0.3,1.1-0.4,1.3
				c-0.1,0.3-0.3,0.5-0.4,0.7c0.2,0.2,0.5,0.4,0.8,0.7C309.1,379.1,309.3,379.3,309.5,379.3z M303.5,376c-0.4,0.2-0.8,0.5-1,0.8
				c-0.2,0.3-0.3,0.6-0.3,1c0,0.4,0.1,0.7,0.4,1c0.3,0.3,0.6,0.4,1.1,0.4c0.3,0,0.6-0.1,0.9-0.2c0.3-0.1,0.6-0.3,0.9-0.6L303.5,376z
				 M304.3,373.9l0.5-0.4c0.4-0.3,0.6-0.6,0.6-0.9c0-0.2-0.1-0.5-0.3-0.6c-0.2-0.2-0.4-0.3-0.7-0.3c-0.3,0-0.5,0.1-0.7,0.2
				c-0.2,0.2-0.3,0.3-0.3,0.5c0,0.2,0.1,0.5,0.4,0.9L304.3,373.9z"/>
			<path class="st2" d="M317.4,380.6v-10h3l1.8,6.8l1.8-6.8h3v10h-1.9v-7.9l-2,7.9h-1.9l-2-7.9v7.9H317.4z"/>
			<path class="st2" d="M334.6,378.3l1.9,0.3c-0.2,0.7-0.6,1.2-1.2,1.6c-0.5,0.4-1.2,0.5-2,0.5c-1.3,0-2.2-0.4-2.8-1.2
				c-0.5-0.7-0.7-1.5-0.7-2.5c0-1.2,0.3-2.1,0.9-2.8c0.6-0.7,1.4-1,2.4-1c1.1,0,1.9,0.4,2.5,1.1c0.6,0.7,0.9,1.8,0.9,3.3h-4.8
				c0,0.6,0.2,1,0.5,1.3c0.3,0.3,0.7,0.5,1.1,0.5c0.3,0,0.6-0.1,0.8-0.2C334.3,378.9,334.5,378.6,334.6,378.3z M334.7,376.3
				c0-0.6-0.2-1-0.4-1.3c-0.3-0.3-0.6-0.4-1-0.4c-0.4,0-0.8,0.2-1,0.5c-0.3,0.3-0.4,0.7-0.4,1.2H334.7z"/>
			<path class="st2" d="M342.9,373.3v1.5h-1.3v2.9c0,0.6,0,0.9,0,1c0,0.1,0.1,0.2,0.2,0.2c0.1,0.1,0.2,0.1,0.3,0.1
				c0.2,0,0.4-0.1,0.8-0.2l0.2,1.5c-0.4,0.2-0.9,0.3-1.5,0.3c-0.3,0-0.7-0.1-0.9-0.2c-0.3-0.1-0.5-0.3-0.6-0.4
				c-0.1-0.2-0.2-0.4-0.3-0.7c0-0.2-0.1-0.7-0.1-1.3v-3.2h-0.9v-1.5h0.9v-1.4l1.9-1.1v2.6H342.9z"/>
			<path class="st2" d="M347,375.5l-1.7-0.3c0.2-0.7,0.5-1.2,1-1.6c0.5-0.3,1.2-0.5,2.1-0.5c0.9,0,1.5,0.1,1.9,0.3
				c0.4,0.2,0.7,0.5,0.9,0.8c0.2,0.3,0.3,0.9,0.3,1.7l0,2.2c0,0.6,0,1.1,0.1,1.4c0.1,0.3,0.2,0.6,0.3,1H350c0-0.1-0.1-0.3-0.2-0.6
				c0-0.1-0.1-0.2-0.1-0.2c-0.3,0.3-0.7,0.6-1,0.7c-0.4,0.2-0.8,0.2-1.2,0.2c-0.7,0-1.3-0.2-1.8-0.6c-0.4-0.4-0.6-0.9-0.6-1.5
				c0-0.4,0.1-0.8,0.3-1.1c0.2-0.3,0.5-0.6,0.8-0.7c0.4-0.2,0.9-0.3,1.5-0.4c0.9-0.2,1.5-0.3,1.9-0.5v-0.2c0-0.4-0.1-0.6-0.3-0.8
				c-0.2-0.2-0.5-0.2-1-0.2c-0.3,0-0.6,0.1-0.8,0.2C347.3,375,347.1,375.2,347,375.5z M349.6,377.1c-0.2,0.1-0.6,0.2-1.2,0.3
				c-0.5,0.1-0.9,0.2-1,0.3c-0.3,0.2-0.4,0.4-0.4,0.7c0,0.3,0.1,0.5,0.3,0.7c0.2,0.2,0.5,0.3,0.8,0.3c0.3,0,0.7-0.1,1-0.3
				c0.2-0.2,0.4-0.4,0.5-0.6c0-0.2,0.1-0.5,0.1-0.9V377.1z"/>
			<path class="st2" d="M354.6,380.6v-10h1.9v3.6c0.6-0.7,1.3-1,2.1-1c0.9,0,1.6,0.3,2.2,1c0.6,0.6,0.9,1.6,0.9,2.7
				c0,1.2-0.3,2.2-0.9,2.9c-0.6,0.7-1.3,1-2.1,1c-0.4,0-0.8-0.1-1.2-0.3c-0.4-0.2-0.7-0.5-1-0.9v1.1H354.6z M356.5,376.8
				c0,0.7,0.1,1.3,0.4,1.7c0.3,0.5,0.8,0.8,1.3,0.8c0.4,0,0.8-0.2,1.1-0.5c0.3-0.4,0.4-0.9,0.4-1.7c0-0.8-0.1-1.4-0.4-1.8
				c-0.3-0.4-0.7-0.5-1.2-0.5c-0.5,0-0.8,0.2-1.1,0.5C356.7,375.5,356.5,376.1,356.5,376.8z"/>
			<path class="st2" d="M364.2,376.8c0-0.6,0.2-1.2,0.5-1.8c0.3-0.6,0.8-1,1.3-1.4c0.6-0.3,1.2-0.5,1.9-0.5c1.1,0,2,0.4,2.7,1.1
				c0.7,0.7,1,1.6,1,2.7c0,1.1-0.4,2-1.1,2.7c-0.7,0.7-1.6,1.1-2.7,1.1c-0.7,0-1.3-0.1-1.9-0.4c-0.6-0.3-1.1-0.7-1.4-1.3
				C364.3,378.4,364.2,377.7,364.2,376.8z M366.1,376.9c0,0.7,0.2,1.3,0.5,1.6c0.3,0.4,0.8,0.6,1.3,0.6c0.5,0,0.9-0.2,1.3-0.6
				c0.3-0.4,0.5-0.9,0.5-1.7c0-0.7-0.2-1.3-0.5-1.6c-0.3-0.4-0.8-0.6-1.3-0.6c-0.5,0-0.9,0.2-1.3,0.6
				C366.3,375.7,366.1,376.2,366.1,376.9z"/>
			<path class="st2" d="M374.5,380.6v-10h1.9v10H374.5z"/>
			<path class="st2" d="M379.8,372.4v-1.8h1.9v1.8H379.8z M379.8,380.6v-7.2h1.9v7.2H379.8z"/>
			<path class="st2" d="M391.4,375.5l-1.9,0.3c-0.1-0.4-0.2-0.7-0.4-0.9c-0.2-0.2-0.5-0.3-0.9-0.3c-0.5,0-0.9,0.2-1.1,0.5
				c-0.3,0.3-0.4,0.9-0.4,1.7c0,0.9,0.1,1.5,0.4,1.8c0.3,0.4,0.7,0.5,1.2,0.5c0.4,0,0.7-0.1,0.9-0.3c0.2-0.2,0.4-0.6,0.5-1.1
				l1.9,0.3c-0.2,0.9-0.6,1.5-1.1,2c-0.6,0.4-1.3,0.7-2.2,0.7c-1.1,0-1.9-0.3-2.5-1c-0.6-0.7-0.9-1.6-0.9-2.8c0-1.2,0.3-2.1,0.9-2.8
				c0.6-0.7,1.5-1,2.6-1c0.9,0,1.6,0.2,2.1,0.6C390.8,374.1,391.1,374.7,391.4,375.5z"/>
			<path class="st2" d="M408,380.6h-2.2l-0.9-2.3h-4l-0.8,2.3H398l3.9-10h2.1L408,380.6z M404.3,376.6l-1.4-3.7l-1.3,3.7H404.3z"/>
			<path class="st2" d="M416.7,375.5l-1.9,0.3c-0.1-0.4-0.2-0.7-0.4-0.9c-0.2-0.2-0.5-0.3-0.9-0.3c-0.5,0-0.9,0.2-1.1,0.5
				c-0.3,0.3-0.4,0.9-0.4,1.7c0,0.9,0.1,1.5,0.4,1.8s0.7,0.5,1.2,0.5c0.4,0,0.7-0.1,0.9-0.3c0.2-0.2,0.4-0.6,0.5-1.1l1.9,0.3
				c-0.2,0.9-0.6,1.5-1.1,2c-0.6,0.4-1.3,0.7-2.2,0.7c-1.1,0-1.9-0.3-2.5-1c-0.6-0.7-0.9-1.6-0.9-2.8c0-1.2,0.3-2.1,0.9-2.8
				c0.6-0.7,1.5-1,2.6-1c0.9,0,1.6,0.2,2.1,0.6C416.1,374.1,416.5,374.7,416.7,375.5z"/>
			<path class="st2" d="M421,375.5l-1.7-0.3c0.2-0.7,0.5-1.2,1-1.6c0.5-0.3,1.2-0.5,2.1-0.5c0.9,0,1.5,0.1,1.9,0.3
				c0.4,0.2,0.7,0.5,0.9,0.8c0.2,0.3,0.3,0.9,0.3,1.7l0,2.2c0,0.6,0,1.1,0.1,1.4c0.1,0.3,0.2,0.6,0.3,1H424c0-0.1-0.1-0.3-0.2-0.6
				c0-0.1-0.1-0.2-0.1-0.2c-0.3,0.3-0.7,0.6-1,0.7c-0.4,0.2-0.8,0.2-1.2,0.2c-0.7,0-1.3-0.2-1.8-0.6c-0.4-0.4-0.6-0.9-0.6-1.5
				c0-0.4,0.1-0.8,0.3-1.1c0.2-0.3,0.5-0.6,0.8-0.7c0.4-0.2,0.9-0.3,1.5-0.4c0.9-0.2,1.5-0.3,1.9-0.5v-0.2c0-0.4-0.1-0.6-0.3-0.8
				c-0.2-0.2-0.5-0.2-1-0.2c-0.3,0-0.6,0.1-0.8,0.2C421.3,375,421.1,375.2,421,375.5z M423.6,377.1c-0.2,0.1-0.6,0.2-1.2,0.3
				c-0.5,0.1-0.9,0.2-1,0.3c-0.3,0.2-0.4,0.4-0.4,0.7c0,0.3,0.1,0.5,0.3,0.7c0.2,0.2,0.5,0.3,0.8,0.3c0.3,0,0.7-0.1,1-0.3
				c0.2-0.2,0.4-0.4,0.5-0.6c0-0.2,0.1-0.5,0.1-0.9V377.1z"/>
			<path class="st2" d="M435.3,380.6h-1.8v-1.1c-0.3,0.4-0.6,0.7-1,0.9c-0.4,0.2-0.8,0.3-1.2,0.3c-0.8,0-1.5-0.3-2.1-1
				c-0.6-0.7-0.9-1.6-0.9-2.8c0-1.2,0.3-2.2,0.9-2.8c0.6-0.6,1.3-1,2.2-1c0.8,0,1.5,0.3,2.1,1v-3.6h1.9V380.6z M430.2,376.8
				c0,0.8,0.1,1.3,0.3,1.7c0.3,0.5,0.7,0.7,1.3,0.7c0.4,0,0.8-0.2,1.1-0.6c0.3-0.4,0.5-0.9,0.5-1.7c0-0.8-0.1-1.4-0.4-1.8
				c-0.3-0.4-0.7-0.5-1.2-0.5c-0.5,0-0.8,0.2-1.1,0.5C430.4,375.5,430.2,376.1,430.2,376.8z"/>
			<path class="st2" d="M442.8,378.3l1.9,0.3c-0.2,0.7-0.6,1.2-1.2,1.6c-0.5,0.4-1.2,0.5-2,0.5c-1.3,0-2.2-0.4-2.8-1.2
				c-0.5-0.7-0.7-1.5-0.7-2.5c0-1.2,0.3-2.1,0.9-2.8c0.6-0.7,1.4-1,2.4-1c1.1,0,1.9,0.4,2.5,1.1c0.6,0.7,0.9,1.8,0.9,3.3H440
				c0,0.6,0.2,1,0.5,1.3c0.3,0.3,0.7,0.5,1.1,0.5c0.3,0,0.6-0.1,0.8-0.2C442.6,378.9,442.7,378.6,442.8,378.3z M442.9,376.3
				c0-0.6-0.2-1-0.4-1.3c-0.3-0.3-0.6-0.4-1-0.4c-0.4,0-0.8,0.2-1,0.5c-0.3,0.3-0.4,0.7-0.4,1.2H442.9z"/>
			<path class="st2" d="M447.6,373.3h1.8v1c0.6-0.8,1.4-1.2,2.3-1.2c0.5,0,0.9,0.1,1.2,0.3c0.3,0.2,0.6,0.5,0.8,0.9
				c0.3-0.4,0.7-0.7,1-0.9c0.4-0.2,0.8-0.3,1.2-0.3c0.5,0,1,0.1,1.3,0.3c0.4,0.2,0.6,0.5,0.8,0.9c0.1,0.3,0.2,0.8,0.2,1.5v4.6h-1.9
				v-4.1c0-0.7-0.1-1.2-0.2-1.4c-0.2-0.3-0.4-0.4-0.8-0.4c-0.3,0-0.5,0.1-0.8,0.2c-0.2,0.2-0.4,0.4-0.5,0.7
				c-0.1,0.3-0.2,0.8-0.2,1.5v3.5H452v-4c0-0.7,0-1.2-0.1-1.4c-0.1-0.2-0.2-0.4-0.3-0.5c-0.1-0.1-0.3-0.1-0.6-0.1
				c-0.3,0-0.6,0.1-0.8,0.2c-0.2,0.2-0.4,0.4-0.5,0.7c-0.1,0.3-0.2,0.8-0.2,1.5v3.5h-1.9V373.3z"/>
			<path class="st2" d="M460.7,373.3h2l1.7,5.1l1.7-5.1h2l-2.6,7l-0.5,1.3c-0.2,0.4-0.3,0.7-0.5,1c-0.2,0.2-0.3,0.4-0.5,0.5
				c-0.2,0.1-0.4,0.2-0.7,0.3c-0.3,0.1-0.6,0.1-1,0.1c-0.4,0-0.7,0-1.1-0.1l-0.2-1.5c0.3,0.1,0.6,0.1,0.8,0.1c0.4,0,0.8-0.1,1-0.4
				c0.2-0.3,0.4-0.6,0.5-1L460.7,373.3z"/>
		</g>
		<g>
			<path class="st2" d="M182.4,287.8h10v75.6h-10v-48.2l-17.5,48.2h-10l-17.5-48.2v48.2h-10v-75.6h10l22.6,62L182.4,287.8z"/>
			<path class="st2" d="M225.5,297.8v11.1c-0.1,0.1-0.1,0.2-0.1,0.3c0,0.1,0,0.2,0.1,0.3v11.1h11.3v9.9c-0.4,0-0.7,0-1.1,0
				c-0.1,0.1-0.3,0.1-0.3,0.1h-9.9v11c-0.1,0.1-0.1,0.2-0.1,0.3c0,0.1,0,0.2,0.1,0.3v11.2h11.1c0.1,0,0.2,0,0.3,0c0.1,0,0.2,0,0.3,0
				h11.1v9.9h-32.8v-75.6h32.8v10h-11.1c-0.1-0.1-0.2-0.1-0.3-0.1c-0.1,0-0.2,0-0.3,0.1H225.5z"/>
			<path class="st2" d="M292.7,330.6v-9.9h21.5V342c0,4.1-1.1,7.9-3.3,11.5c-1.7,2.7-4,4.9-6.7,6.6c-3.5,2.2-7.3,3.3-11.4,3.3
				c-4.1,0-7.9-1.1-11.4-3.3c-2.7-1.7-5-3.9-6.7-6.6c-2.2-3.5-3.3-7.3-3.3-11.5v-32.8c0-4.1,1.1-7.9,3.3-11.3c1.7-2.7,4-5,6.7-6.7
				c3.5-2.2,7.3-3.3,11.4-3.3c4.1,0,7.9,1.1,11.4,3.3c2.7,1.7,5,4,6.7,6.7c2.2,3.5,3.3,7.2,3.3,11.3h-10c0-0.1,0-0.1,0-0.2
				c-0.1-3.1-1.2-5.7-3.3-7.8c-2.2-2.1-4.8-3.2-7.8-3.3c-0.1-0.1-0.2-0.1-0.3-0.1c-0.1,0-0.2,0-0.2,0.1c-3.1,0.1-5.7,1.2-7.8,3.3
				c-2.1,2.1-3.2,4.7-3.3,7.8c-0.1,0.1-0.1,0.2-0.1,0.3c0,0.1,0,0.2,0.1,0.3v32.2c-0.1,0.1-0.1,0.2-0.1,0.3c0,0.1,0,0.2,0.1,0.3
				c0.1,3.1,1.2,5.7,3.3,7.8c2.1,2.1,4.7,3.3,7.8,3.4c0.3,0,0.5,0,0.5,0c3-0.1,5.6-1.3,7.8-3.4c2.2-2.1,3.3-4.7,3.3-7.8
				c0-0.1,0-0.2,0-0.3c0-0.1,0-0.2,0-0.3v-11v-0.1H292.7z"/>
			<path class="st2" d="M392.1,287.8h10v75.6h-10v-48.2l-17.5,48.2h-10l-17.5-48.2v48.2h-10v-75.6h10l22.6,62L392.1,287.8z"/>
			<path class="st2" d="M458,291.1c1.5,0.9,2.9,2.1,4.1,3.3c1.2,1.3,2.3,2.7,3.1,4.2c0.9,1.5,1.5,3.2,2.1,5c0.5,1.8,0.8,3.6,0.8,5.5
				v54.2h-10v-32.7h-22.8v32.7h-10v-54.2c0-3.7,0.9-7.2,2.7-10.4c1.8-3.2,4.2-5.7,7.3-7.6c3.5-2.2,7.3-3.3,11.4-3.3
				C450.8,287.8,454.6,288.9,458,291.1z M458,309.5c0-0.1,0-0.2,0-0.3c0-0.1,0-0.2,0-0.3c-0.1-3.1-1.2-5.7-3.5-7.9
				c-2.2-2.2-4.9-3.3-8-3.3c-3.1,0-5.7,1.1-7.9,3.3c-2.2,2.2-3.3,4.8-3.4,7.9c-0.1,0.1-0.1,0.2-0.1,0.3c0,0.1,0,0.2,0.1,0.3v11.1
				H458V309.5z"/>
		</g>
	</g>
</g>
</svg>
